<mxfile host="65bd71144e">
    <diagram id="qoyQ55SIrfspQbVGYdP3" name="Page-1">
        <mxGraphModel dx="1216" dy="827" grid="1" gridSize="10" guides="1" tooltips="1" connect="1" arrows="1" fold="1" page="1" pageScale="1" pageWidth="827" pageHeight="1169" math="0" shadow="0">
            <root>
                <mxCell id="0"/>
                <mxCell id="1" parent="0"/>
                <mxCell id="2" value="" style="strokeWidth=1;shadow=0;dashed=0;align=center;html=1;shape=mxgraph.mockup.containers.browserWindow;rSize=0;strokeColor=#CCFFFF;strokeColor2=#008cff;strokeColor3=#c4c4c4;mainText=,;recursiveResize=0;movable=0;resizable=0;rotatable=0;deletable=0;editable=0;locked=1;connectable=0;" parent="1" vertex="1">
                    <mxGeometry x="50" y="110" width="930" height="3110" as="geometry"/>
                </mxCell>
                <mxCell id="37" value="" style="rounded=0;whiteSpace=wrap;html=1;fillColor=#CCFFFF;strokeColor=none;movable=0;resizable=0;rotatable=0;deletable=0;editable=0;locked=1;connectable=0;" parent="2" vertex="1">
                    <mxGeometry y="1085" width="930" height="715" as="geometry"/>
                </mxCell>
                <mxCell id="3" value="Page 1" style="strokeWidth=1;shadow=0;dashed=0;align=center;html=1;shape=mxgraph.mockup.containers.anchor;fontSize=17;fontColor=#666666;align=left;whiteSpace=wrap;movable=0;resizable=0;rotatable=0;deletable=0;editable=0;locked=1;connectable=0;" parent="2" vertex="1">
                    <mxGeometry x="60" y="12" width="110" height="26" as="geometry"/>
                </mxCell>
                <mxCell id="4" value="https://www.draw.io" style="strokeWidth=1;shadow=0;dashed=0;align=center;html=1;shape=mxgraph.mockup.containers.anchor;rSize=0;fontSize=17;fontColor=#666666;align=left;movable=0;resizable=0;rotatable=0;deletable=0;editable=0;locked=1;connectable=0;" parent="2" vertex="1">
                    <mxGeometry x="130" y="60" width="250" height="26" as="geometry"/>
                </mxCell>
                <mxCell id="5" value="" style="rounded=0;whiteSpace=wrap;html=1;fillColor=#000000;strokeColor=none;movable=0;resizable=0;rotatable=0;deletable=0;editable=0;locked=1;connectable=0;" parent="2" vertex="1">
                    <mxGeometry y="110" width="930" height="60" as="geometry"/>
                </mxCell>
                <mxCell id="6" value="&lt;h1&gt;&lt;b&gt;&lt;font style=&quot;color: rgb(255, 128, 0);&quot;&gt;Raph&lt;/font&gt;&lt;font style=&quot;color: rgb(255, 255, 0);&quot;&gt;Design&lt;/font&gt;&lt;/b&gt;&lt;/h1&gt;" style="text;html=1;align=center;verticalAlign=middle;whiteSpace=wrap;rounded=0;movable=0;resizable=0;rotatable=0;deletable=0;editable=0;locked=1;connectable=0;" parent="2" vertex="1">
                    <mxGeometry x="10" y="125" width="160" height="30" as="geometry"/>
                </mxCell>
                <mxCell id="7" value="&lt;h1&gt;&lt;font style=&quot;font-size: 16px; color: rgb(255, 255, 255);&quot;&gt;Home&lt;/font&gt;&lt;/h1&gt;" style="text;html=1;align=center;verticalAlign=middle;whiteSpace=wrap;rounded=0;movable=0;resizable=0;rotatable=0;deletable=0;editable=0;locked=1;connectable=0;" parent="2" vertex="1">
                    <mxGeometry x="420" y="125" width="110" height="30" as="geometry"/>
                </mxCell>
                <mxCell id="8" value="&lt;h1&gt;&lt;font style=&quot;font-size: 16px; color: rgb(255, 255, 255);&quot;&gt;About&lt;/font&gt;&lt;/h1&gt;" style="text;html=1;align=center;verticalAlign=middle;whiteSpace=wrap;rounded=0;movable=0;resizable=0;rotatable=0;deletable=0;editable=0;locked=1;connectable=0;" parent="2" vertex="1">
                    <mxGeometry x="537" y="125" width="110" height="30" as="geometry"/>
                </mxCell>
                <mxCell id="9" value="&lt;h1&gt;&lt;font style=&quot;font-size: 16px; color: rgb(255, 255, 255);&quot;&gt;Projects&lt;/font&gt;&lt;/h1&gt;" style="text;html=1;align=center;verticalAlign=middle;whiteSpace=wrap;rounded=0;movable=0;resizable=0;rotatable=0;deletable=0;editable=0;locked=1;connectable=0;" parent="2" vertex="1">
                    <mxGeometry x="653" y="125" width="110" height="30" as="geometry"/>
                </mxCell>
                <mxCell id="10" value="&lt;h1&gt;&lt;font style=&quot;font-size: 16px; color: rgb(255, 255, 255);&quot;&gt;Contact&lt;/font&gt;&lt;/h1&gt;" style="text;html=1;align=center;verticalAlign=middle;whiteSpace=wrap;rounded=0;movable=0;resizable=0;rotatable=0;deletable=0;editable=0;locked=1;connectable=0;" parent="2" vertex="1">
                    <mxGeometry x="770" y="125" width="110" height="30" as="geometry"/>
                </mxCell>
                <mxCell id="12" value="" style="rounded=0;whiteSpace=wrap;html=1;fillColor=#FFFFCC;strokeColor=none;movable=0;resizable=0;rotatable=0;deletable=0;editable=0;locked=1;connectable=0;" parent="2" vertex="1">
                    <mxGeometry y="170" width="930" height="460" as="geometry"/>
                </mxCell>
                <mxCell id="13" value="" style="rounded=1;whiteSpace=wrap;html=1;arcSize=6;strokeColor=none;movable=0;resizable=0;rotatable=0;deletable=0;editable=0;locked=1;connectable=0;" parent="2" vertex="1">
                    <mxGeometry x="430" y="230" width="470" height="360" as="geometry"/>
                </mxCell>
                <mxCell id="14" value="&lt;b&gt;&lt;font style=&quot;font-size: 29px;&quot;&gt;Hello, I&#39;m Raphael&lt;/font&gt;&lt;/b&gt;" style="text;html=1;align=left;verticalAlign=middle;whiteSpace=wrap;rounded=0;movable=0;resizable=0;rotatable=0;deletable=0;editable=0;locked=1;connectable=0;" parent="2" vertex="1">
                    <mxGeometry x="30" y="230" width="250" height="120" as="geometry"/>
                </mxCell>
                <mxCell id="15" value="&lt;h1&gt;&lt;b style=&quot;&quot;&gt;&lt;font style=&quot;font-size: 48px;&quot;&gt;Aspiring Web Designer&amp;nbsp;&lt;/font&gt;&lt;/b&gt;&lt;/h1&gt;" style="text;html=1;align=left;verticalAlign=middle;whiteSpace=wrap;rounded=0;movable=0;resizable=0;rotatable=0;deletable=0;editable=0;locked=1;connectable=0;" parent="2" vertex="1">
                    <mxGeometry x="30" y="340" width="370" height="120" as="geometry"/>
                </mxCell>
                <mxCell id="16" value="&lt;font face=&quot;Verdana&quot; style=&quot;font-size: 20px; color: rgb(255, 255, 255);&quot;&gt;View My Work&lt;/font&gt;" style="rounded=1;whiteSpace=wrap;html=1;arcSize=22;strokeColor=none;shadow=0;fillColor=#000000;movable=0;resizable=0;rotatable=0;deletable=0;editable=0;locked=1;connectable=0;" parent="2" vertex="1">
                    <mxGeometry x="30" y="510" width="150" height="40" as="geometry"/>
                </mxCell>
                <mxCell id="18" value="&lt;font face=&quot;Verdana&quot; style=&quot;font-size: 20px; color: rgb(0, 0, 0);&quot;&gt;Contact Me&lt;/font&gt;" style="rounded=1;whiteSpace=wrap;html=1;arcSize=22;strokeColor=default;shadow=0;fillColor=#FFFFFF;movable=0;resizable=0;rotatable=0;deletable=0;editable=0;locked=1;connectable=0;" parent="2" vertex="1">
                    <mxGeometry x="200" y="510" width="190" height="40" as="geometry"/>
                </mxCell>
                <mxCell id="19" value="" style="rounded=0;whiteSpace=wrap;html=1;fillColor=#CCFFFF;strokeColor=none;movable=0;resizable=0;rotatable=0;deletable=0;editable=0;locked=1;connectable=0;" parent="2" vertex="1">
                    <mxGeometry y="630" width="930" height="460" as="geometry"/>
                </mxCell>
                <mxCell id="20" value="&lt;h1&gt;&lt;font style=&quot;color: rgb(0, 0, 0);&quot;&gt;About Me&lt;/font&gt;&lt;/h1&gt;" style="text;html=1;align=center;verticalAlign=middle;whiteSpace=wrap;rounded=0;movable=0;resizable=0;rotatable=0;deletable=0;editable=0;locked=1;connectable=0;" parent="2" vertex="1">
                    <mxGeometry x="395" y="660" width="160" height="30" as="geometry"/>
                </mxCell>
                <mxCell id="21" value="" style="ellipse;whiteSpace=wrap;html=1;aspect=fixed;strokeColor=none;movable=0;resizable=0;rotatable=0;deletable=0;editable=0;locked=1;connectable=0;" parent="2" vertex="1">
                    <mxGeometry x="395" y="710" width="140" height="140" as="geometry"/>
                </mxCell>
                <mxCell id="23" value="&lt;p data-pm-slice=&quot;0 0 []&quot;&gt;&lt;font style=&quot;font-size: 16px;&quot;&gt;I&#39;m passionate about design and&amp;nbsp;&lt;span style=&quot;background-color: transparent;&quot;&gt;front-end development. I love learning&amp;nbsp;&lt;/span&gt;&lt;span style=&quot;background-color: transparent;&quot;&gt;and improving my skills.&lt;/span&gt;&lt;/font&gt;&lt;/p&gt;" style="text;html=1;align=center;verticalAlign=middle;whiteSpace=wrap;rounded=0;movable=0;resizable=0;rotatable=0;deletable=0;editable=0;locked=1;connectable=0;" parent="2" vertex="1">
                    <mxGeometry x="307.5" y="970" width="315" height="51" as="geometry"/>
                </mxCell>
                <mxCell id="24" value="&lt;h1&gt;&lt;font style=&quot;color: rgb(0, 0, 0); font-size: 20px;&quot;&gt;Raphael Randrianantoanina&lt;/font&gt;&lt;/h1&gt;" style="text;html=1;align=center;verticalAlign=middle;whiteSpace=wrap;rounded=0;movable=0;resizable=0;rotatable=0;deletable=0;editable=0;locked=1;connectable=0;" parent="2" vertex="1">
                    <mxGeometry x="385" y="870" width="160" height="30" as="geometry"/>
                </mxCell>
                <mxCell id="26" value="&lt;h1&gt;&lt;font style=&quot;color: rgb(0, 0, 0);&quot;&gt;My Projects&lt;/font&gt;&lt;/h1&gt;" style="text;html=1;align=center;verticalAlign=middle;whiteSpace=wrap;rounded=0;movable=0;resizable=0;rotatable=0;deletable=0;editable=0;locked=1;connectable=0;" parent="2" vertex="1">
                    <mxGeometry x="385" y="1130" width="160" height="30" as="geometry"/>
                </mxCell>
                <mxCell id="80" value="" style="group;movable=0;resizable=0;rotatable=0;deletable=0;editable=0;locked=1;connectable=0;" parent="2" vertex="1" connectable="0">
                    <mxGeometry x="40" y="1200" width="250" height="250" as="geometry"/>
                </mxCell>
                <mxCell id="25" value="" style="rounded=1;whiteSpace=wrap;html=1;fillColor=#FFFFCC;strokeColor=none;arcSize=11;movable=0;resizable=0;rotatable=0;deletable=0;editable=0;locked=1;connectable=0;" parent="80" vertex="1">
                    <mxGeometry width="250" height="250" as="geometry"/>
                </mxCell>
                <mxCell id="43" value="&lt;h1&gt;&lt;font style=&quot;color: rgb(0, 0, 0); font-size: 20px;&quot;&gt;My Projects&lt;/font&gt;&lt;/h1&gt;" style="text;html=1;align=center;verticalAlign=middle;whiteSpace=wrap;rounded=0;movable=0;resizable=0;rotatable=0;deletable=0;editable=0;locked=1;connectable=0;" parent="80" vertex="1">
                    <mxGeometry x="44.75" y="20" width="160" height="30" as="geometry"/>
                </mxCell>
                <mxCell id="45" value="" style="rounded=1;whiteSpace=wrap;html=1;arcSize=33;strokeColor=none;fillColor=#E6E6E6;movable=0;resizable=0;rotatable=0;deletable=0;editable=0;locked=1;connectable=0;" parent="80" vertex="1">
                    <mxGeometry x="59.75" y="60" width="146.5" height="90" as="geometry"/>
                </mxCell>
                <mxCell id="44" value="" style="rounded=1;whiteSpace=wrap;html=1;arcSize=37;strokeColor=none;movable=0;resizable=0;rotatable=0;deletable=0;editable=0;locked=1;connectable=0;" parent="80" vertex="1">
                    <mxGeometry x="16.25" y="85" width="100" height="95" as="geometry"/>
                </mxCell>
                <mxCell id="79" value="&lt;font face=&quot;Verdana&quot; style=&quot;font-size: 20px; color: rgb(255, 255, 255);&quot;&gt;Check It Out&lt;/font&gt;" style="rounded=1;whiteSpace=wrap;html=1;arcSize=50;strokeColor=none;shadow=0;fillColor=#000000;movable=0;resizable=0;rotatable=0;deletable=0;editable=0;locked=1;connectable=0;" parent="80" vertex="1">
                    <mxGeometry x="41.75" y="190" width="166.5" height="40" as="geometry"/>
                </mxCell>
                <mxCell id="81" value="" style="group;movable=0;resizable=0;rotatable=0;deletable=0;editable=0;locked=1;connectable=0;" parent="2" vertex="1" connectable="0">
                    <mxGeometry x="338.25" y="1200" width="250" height="250" as="geometry"/>
                </mxCell>
                <mxCell id="82" value="" style="rounded=1;whiteSpace=wrap;html=1;fillColor=#FFFFCC;strokeColor=none;arcSize=11;movable=0;resizable=0;rotatable=0;deletable=0;editable=0;locked=1;connectable=0;" parent="81" vertex="1">
                    <mxGeometry width="250" height="250" as="geometry"/>
                </mxCell>
                <mxCell id="83" value="&lt;h1&gt;&lt;font style=&quot;color: rgb(0, 0, 0); font-size: 20px;&quot;&gt;My Projects&lt;/font&gt;&lt;/h1&gt;" style="text;html=1;align=center;verticalAlign=middle;whiteSpace=wrap;rounded=0;movable=0;resizable=0;rotatable=0;deletable=0;editable=0;locked=1;connectable=0;" parent="81" vertex="1">
                    <mxGeometry x="44.75" y="20" width="160" height="30" as="geometry"/>
                </mxCell>
                <mxCell id="84" value="" style="rounded=1;whiteSpace=wrap;html=1;arcSize=33;strokeColor=none;fillColor=#E6E6E6;movable=0;resizable=0;rotatable=0;deletable=0;editable=0;locked=1;connectable=0;" parent="81" vertex="1">
                    <mxGeometry x="59.75" y="60" width="146.5" height="90" as="geometry"/>
                </mxCell>
                <mxCell id="85" value="" style="rounded=1;whiteSpace=wrap;html=1;arcSize=37;strokeColor=none;movable=0;resizable=0;rotatable=0;deletable=0;editable=0;locked=1;connectable=0;" parent="81" vertex="1">
                    <mxGeometry x="16.25" y="85" width="100" height="95" as="geometry"/>
                </mxCell>
                <mxCell id="86" value="&lt;font face=&quot;Verdana&quot; style=&quot;font-size: 20px; color: rgb(255, 255, 255);&quot;&gt;Check It Out&lt;/font&gt;" style="rounded=1;whiteSpace=wrap;html=1;arcSize=50;strokeColor=none;shadow=0;fillColor=#000000;movable=0;resizable=0;rotatable=0;deletable=0;editable=0;locked=1;connectable=0;" parent="81" vertex="1">
                    <mxGeometry x="41.75" y="190" width="166.5" height="40" as="geometry"/>
                </mxCell>
                <mxCell id="87" value="" style="group;movable=0;resizable=0;rotatable=0;deletable=0;editable=0;locked=1;connectable=0;" parent="2" vertex="1" connectable="0">
                    <mxGeometry x="636.25" y="1200" width="250" height="250" as="geometry"/>
                </mxCell>
                <mxCell id="88" value="" style="rounded=1;whiteSpace=wrap;html=1;fillColor=#FFFFCC;strokeColor=none;arcSize=11;movable=0;resizable=0;rotatable=0;deletable=0;editable=0;locked=1;connectable=0;" parent="87" vertex="1">
                    <mxGeometry width="250" height="250" as="geometry"/>
                </mxCell>
                <mxCell id="89" value="&lt;h1&gt;&lt;font style=&quot;color: rgb(0, 0, 0); font-size: 20px;&quot;&gt;My Projects&lt;/font&gt;&lt;/h1&gt;" style="text;html=1;align=center;verticalAlign=middle;whiteSpace=wrap;rounded=0;movable=0;resizable=0;rotatable=0;deletable=0;editable=0;locked=1;connectable=0;" parent="87" vertex="1">
                    <mxGeometry x="44.75" y="20" width="160" height="30" as="geometry"/>
                </mxCell>
                <mxCell id="90" value="" style="rounded=1;whiteSpace=wrap;html=1;arcSize=33;strokeColor=none;fillColor=#E6E6E6;movable=0;resizable=0;rotatable=0;deletable=0;editable=0;locked=1;connectable=0;" parent="87" vertex="1">
                    <mxGeometry x="59.75" y="60" width="146.5" height="90" as="geometry"/>
                </mxCell>
                <mxCell id="91" value="" style="rounded=1;whiteSpace=wrap;html=1;arcSize=37;strokeColor=none;movable=0;resizable=0;rotatable=0;deletable=0;editable=0;locked=1;connectable=0;" parent="87" vertex="1">
                    <mxGeometry x="16.25" y="85" width="100" height="95" as="geometry"/>
                </mxCell>
                <mxCell id="92" value="&lt;font face=&quot;Verdana&quot; style=&quot;font-size: 20px; color: rgb(255, 255, 255);&quot;&gt;Check It Out&lt;/font&gt;" style="rounded=1;whiteSpace=wrap;html=1;arcSize=50;strokeColor=none;shadow=0;fillColor=#000000;movable=0;resizable=0;rotatable=0;deletable=0;editable=0;locked=1;connectable=0;" parent="87" vertex="1">
                    <mxGeometry x="41.75" y="190" width="166.5" height="40" as="geometry"/>
                </mxCell>
                <mxCell id="93" value="" style="group;movable=0;resizable=0;rotatable=0;deletable=0;editable=0;locked=1;connectable=0;" parent="2" vertex="1" connectable="0">
                    <mxGeometry x="636.25" y="1470" width="250" height="250" as="geometry"/>
                </mxCell>
                <mxCell id="94" value="" style="rounded=1;whiteSpace=wrap;html=1;fillColor=#FFFFCC;strokeColor=none;arcSize=11;movable=0;resizable=0;rotatable=0;deletable=0;editable=0;locked=1;connectable=0;" parent="93" vertex="1">
                    <mxGeometry width="250" height="250" as="geometry"/>
                </mxCell>
                <mxCell id="95" value="&lt;h1&gt;&lt;font style=&quot;color: rgb(0, 0, 0); font-size: 20px;&quot;&gt;My Projects&lt;/font&gt;&lt;/h1&gt;" style="text;html=1;align=center;verticalAlign=middle;whiteSpace=wrap;rounded=0;movable=0;resizable=0;rotatable=0;deletable=0;editable=0;locked=1;connectable=0;" parent="93" vertex="1">
                    <mxGeometry x="44.75" y="20" width="160" height="30" as="geometry"/>
                </mxCell>
                <mxCell id="96" value="" style="rounded=1;whiteSpace=wrap;html=1;arcSize=33;strokeColor=none;fillColor=#E6E6E6;movable=0;resizable=0;rotatable=0;deletable=0;editable=0;locked=1;connectable=0;" parent="93" vertex="1">
                    <mxGeometry x="59.75" y="60" width="146.5" height="90" as="geometry"/>
                </mxCell>
                <mxCell id="97" value="" style="rounded=1;whiteSpace=wrap;html=1;arcSize=37;strokeColor=none;movable=0;resizable=0;rotatable=0;deletable=0;editable=0;locked=1;connectable=0;" parent="93" vertex="1">
                    <mxGeometry x="16.25" y="85" width="100" height="95" as="geometry"/>
                </mxCell>
                <mxCell id="98" value="&lt;font face=&quot;Verdana&quot; style=&quot;font-size: 20px; color: rgb(255, 255, 255);&quot;&gt;Check It Out&lt;/font&gt;" style="rounded=1;whiteSpace=wrap;html=1;arcSize=50;strokeColor=none;shadow=0;fillColor=#000000;movable=0;resizable=0;rotatable=0;deletable=0;editable=0;locked=1;connectable=0;" parent="93" vertex="1">
                    <mxGeometry x="41.75" y="190" width="166.5" height="40" as="geometry"/>
                </mxCell>
                <mxCell id="99" value="" style="group;movable=0;resizable=0;rotatable=0;deletable=0;editable=0;locked=1;connectable=0;" parent="2" vertex="1" connectable="0">
                    <mxGeometry x="338.25" y="1470" width="250" height="250" as="geometry"/>
                </mxCell>
                <mxCell id="100" value="" style="rounded=1;whiteSpace=wrap;html=1;fillColor=#FFFFCC;strokeColor=none;arcSize=11;movable=0;resizable=0;rotatable=0;deletable=0;editable=0;locked=1;connectable=0;" parent="99" vertex="1">
                    <mxGeometry width="250" height="250" as="geometry"/>
                </mxCell>
                <mxCell id="101" value="&lt;h1&gt;&lt;font style=&quot;color: rgb(0, 0, 0); font-size: 20px;&quot;&gt;My Projects&lt;/font&gt;&lt;/h1&gt;" style="text;html=1;align=center;verticalAlign=middle;whiteSpace=wrap;rounded=0;movable=0;resizable=0;rotatable=0;deletable=0;editable=0;locked=1;connectable=0;" parent="99" vertex="1">
                    <mxGeometry x="44.75" y="20" width="160" height="30" as="geometry"/>
                </mxCell>
                <mxCell id="102" value="" style="rounded=1;whiteSpace=wrap;html=1;arcSize=33;strokeColor=none;fillColor=#E6E6E6;movable=0;resizable=0;rotatable=0;deletable=0;editable=0;locked=1;connectable=0;" parent="99" vertex="1">
                    <mxGeometry x="59.75" y="60" width="146.5" height="90" as="geometry"/>
                </mxCell>
                <mxCell id="103" value="" style="rounded=1;whiteSpace=wrap;html=1;arcSize=37;strokeColor=none;movable=0;resizable=0;rotatable=0;deletable=0;editable=0;locked=1;connectable=0;" parent="99" vertex="1">
                    <mxGeometry x="16.25" y="85" width="100" height="95" as="geometry"/>
                </mxCell>
                <mxCell id="104" value="&lt;font face=&quot;Verdana&quot; style=&quot;font-size: 20px; color: rgb(255, 255, 255);&quot;&gt;Check It Out&lt;/font&gt;" style="rounded=1;whiteSpace=wrap;html=1;arcSize=50;strokeColor=none;shadow=0;fillColor=#000000;movable=0;resizable=0;rotatable=0;deletable=0;editable=0;locked=1;connectable=0;" parent="99" vertex="1">
                    <mxGeometry x="41.75" y="190" width="166.5" height="40" as="geometry"/>
                </mxCell>
                <mxCell id="105" value="" style="group;movable=0;resizable=0;rotatable=0;deletable=0;editable=0;locked=1;connectable=0;" parent="2" vertex="1" connectable="0">
                    <mxGeometry x="40" y="1470" width="250" height="250" as="geometry"/>
                </mxCell>
                <mxCell id="106" value="" style="rounded=1;whiteSpace=wrap;html=1;fillColor=#FFFFCC;strokeColor=none;arcSize=11;movable=0;resizable=0;rotatable=0;deletable=0;editable=0;locked=1;connectable=0;" parent="105" vertex="1">
                    <mxGeometry width="250" height="250" as="geometry"/>
                </mxCell>
                <mxCell id="107" value="&lt;h1&gt;&lt;font style=&quot;color: rgb(0, 0, 0); font-size: 20px;&quot;&gt;My Projects&lt;/font&gt;&lt;/h1&gt;" style="text;html=1;align=center;verticalAlign=middle;whiteSpace=wrap;rounded=0;movable=0;resizable=0;rotatable=0;deletable=0;editable=0;locked=1;connectable=0;" parent="105" vertex="1">
                    <mxGeometry x="44.75" y="20" width="160" height="30" as="geometry"/>
                </mxCell>
                <mxCell id="108" value="" style="rounded=1;whiteSpace=wrap;html=1;arcSize=33;strokeColor=none;fillColor=#E6E6E6;movable=0;resizable=0;rotatable=0;deletable=0;editable=0;locked=1;connectable=0;" parent="105" vertex="1">
                    <mxGeometry x="59.75" y="60" width="146.5" height="90" as="geometry"/>
                </mxCell>
                <mxCell id="109" value="" style="rounded=1;whiteSpace=wrap;html=1;arcSize=37;strokeColor=none;movable=0;resizable=0;rotatable=0;deletable=0;editable=0;locked=1;connectable=0;" parent="105" vertex="1">
                    <mxGeometry x="16.25" y="85" width="100" height="95" as="geometry"/>
                </mxCell>
                <mxCell id="110" value="&lt;font face=&quot;Verdana&quot; style=&quot;font-size: 20px; color: rgb(255, 255, 255);&quot;&gt;Check It Out&lt;/font&gt;" style="rounded=1;whiteSpace=wrap;html=1;arcSize=50;strokeColor=none;shadow=0;fillColor=#000000;movable=0;resizable=0;rotatable=0;deletable=0;editable=0;locked=1;connectable=0;" parent="105" vertex="1">
                    <mxGeometry x="41.75" y="190" width="166.5" height="40" as="geometry"/>
                </mxCell>
                <mxCell id="169" value="" style="rounded=0;whiteSpace=wrap;html=1;fillColor=#FFFFCC;strokeColor=none;movable=0;resizable=0;rotatable=0;deletable=0;editable=0;locked=1;connectable=0;" parent="2" vertex="1">
                    <mxGeometry x="-1.75" y="1800" width="930" height="460" as="geometry"/>
                </mxCell>
                <mxCell id="170" value="&lt;h1&gt;&lt;font style=&quot;color: rgb(0, 0, 0);&quot;&gt;Skils&lt;/font&gt;&lt;/h1&gt;" style="text;html=1;align=center;verticalAlign=middle;whiteSpace=wrap;rounded=0;movable=0;resizable=0;rotatable=0;deletable=0;editable=0;locked=1;connectable=0;" parent="2" vertex="1">
                    <mxGeometry x="383.25" y="1840" width="160" height="30" as="geometry"/>
                </mxCell>
                <mxCell id="171" value="" style="ellipse;whiteSpace=wrap;html=1;aspect=fixed;strokeColor=none;shadow=1;movable=0;resizable=0;rotatable=0;deletable=0;editable=0;locked=1;connectable=0;" parent="2" vertex="1">
                    <mxGeometry x="75" y="1910" width="80" height="80" as="geometry"/>
                </mxCell>
                <mxCell id="172" value="" style="ellipse;whiteSpace=wrap;html=1;aspect=fixed;strokeColor=none;shadow=1;movable=0;resizable=0;rotatable=0;deletable=0;editable=0;locked=1;connectable=0;" parent="2" vertex="1">
                    <mxGeometry x="75" y="2010" width="80" height="80" as="geometry"/>
                </mxCell>
                <mxCell id="173" value="" style="ellipse;whiteSpace=wrap;html=1;aspect=fixed;strokeColor=none;shadow=1;movable=0;resizable=0;rotatable=0;deletable=0;editable=0;locked=1;connectable=0;" parent="2" vertex="1">
                    <mxGeometry x="75" y="2120" width="80" height="80" as="geometry"/>
                </mxCell>
                <mxCell id="175" value="" style="html=1;shadow=0;dashed=0;shape=mxgraph.bootstrap.rrect;rSize=5;fillColor=#E9ECEF;strokeColor=none;movable=0;resizable=0;rotatable=0;deletable=0;editable=0;locked=1;connectable=0;" parent="2" vertex="1">
                    <mxGeometry x="190" y="1960" width="270" height="30" as="geometry"/>
                </mxCell>
                <mxCell id="176" value="" style="html=1;shadow=0;dashed=0;shape=mxgraph.bootstrap.leftButton;rSize=5;fillColor=#FFBC26;strokeColor=none;resizeHeight=1;movable=0;resizable=0;rotatable=0;deletable=0;editable=0;locked=1;connectable=0;" parent="175" vertex="1">
                    <mxGeometry width="100" height="30" relative="1" as="geometry"/>
                </mxCell>
                <mxCell id="178" value="" style="html=1;shadow=0;dashed=0;shape=mxgraph.bootstrap.rrect;rSize=5;fillColor=#E9ECEF;strokeColor=none;movable=0;resizable=0;rotatable=0;deletable=0;editable=0;locked=1;connectable=0;" parent="2" vertex="1">
                    <mxGeometry x="190" y="2060" width="270" height="30" as="geometry"/>
                </mxCell>
                <mxCell id="179" value="" style="html=1;shadow=0;dashed=0;shape=mxgraph.bootstrap.leftButton;rSize=5;fillColor=#FFBC26;strokeColor=none;resizeHeight=1;movable=0;resizable=0;rotatable=0;deletable=0;editable=0;locked=1;connectable=0;" parent="178" vertex="1">
                    <mxGeometry width="150" height="30" relative="1" as="geometry"/>
                </mxCell>
                <mxCell id="180" value="" style="html=1;shadow=0;dashed=0;shape=mxgraph.bootstrap.rrect;rSize=5;fillColor=#E9ECEF;strokeColor=none;movable=0;resizable=0;rotatable=0;deletable=0;editable=0;locked=1;connectable=0;" parent="2" vertex="1">
                    <mxGeometry x="190" y="2170" width="270" height="30" as="geometry"/>
                </mxCell>
                <mxCell id="181" value="" style="html=1;shadow=0;dashed=0;shape=mxgraph.bootstrap.leftButton;rSize=5;fillColor=#FFBC26;strokeColor=none;resizeHeight=1;movable=0;resizable=0;rotatable=0;deletable=0;editable=0;locked=1;connectable=0;" parent="180" vertex="1">
                    <mxGeometry width="100" height="30" relative="1" as="geometry"/>
                </mxCell>
                <mxCell id="182" value="" style="rounded=1;whiteSpace=wrap;html=1;strokeColor=none;shadow=1;movable=0;resizable=0;rotatable=0;deletable=0;editable=0;locked=1;connectable=0;" parent="2" vertex="1">
                    <mxGeometry x="510" y="1930" width="70" height="60" as="geometry"/>
                </mxCell>
                <mxCell id="183" value="" style="rounded=1;whiteSpace=wrap;html=1;strokeColor=none;shadow=1;movable=0;resizable=0;rotatable=0;deletable=0;editable=0;locked=1;connectable=0;" parent="2" vertex="1">
                    <mxGeometry x="510" y="2030" width="70" height="60" as="geometry"/>
                </mxCell>
                <mxCell id="184" value="" style="rounded=1;whiteSpace=wrap;html=1;strokeColor=none;shadow=1;movable=0;resizable=0;rotatable=0;deletable=0;editable=0;locked=1;connectable=0;" parent="2" vertex="1">
                    <mxGeometry x="510" y="2140" width="70" height="60" as="geometry"/>
                </mxCell>
                <mxCell id="185" value="" style="html=1;shadow=0;dashed=0;shape=mxgraph.bootstrap.rrect;rSize=5;fillColor=#E9ECEF;strokeColor=none;movable=0;resizable=0;rotatable=0;deletable=0;editable=0;locked=1;connectable=0;" parent="2" vertex="1">
                    <mxGeometry x="610" y="1955" width="270" height="30" as="geometry"/>
                </mxCell>
                <mxCell id="186" value="" style="html=1;shadow=0;dashed=0;shape=mxgraph.bootstrap.leftButton;rSize=5;fillColor=#FFBC26;strokeColor=none;resizeHeight=1;movable=0;resizable=0;rotatable=0;deletable=0;editable=0;locked=1;connectable=0;" parent="185" vertex="1">
                    <mxGeometry width="100" height="30" relative="1" as="geometry"/>
                </mxCell>
                <mxCell id="187" value="" style="html=1;shadow=0;dashed=0;shape=mxgraph.bootstrap.rrect;rSize=5;fillColor=#E9ECEF;strokeColor=none;movable=0;resizable=0;rotatable=0;deletable=0;editable=0;locked=1;connectable=0;" parent="2" vertex="1">
                    <mxGeometry x="610" y="2055" width="270" height="30" as="geometry"/>
                </mxCell>
                <mxCell id="188" value="" style="html=1;shadow=0;dashed=0;shape=mxgraph.bootstrap.leftButton;rSize=5;fillColor=#FFBC26;strokeColor=none;resizeHeight=1;movable=0;resizable=0;rotatable=0;deletable=0;editable=0;locked=1;connectable=0;" parent="187" vertex="1">
                    <mxGeometry width="150" height="30" relative="1" as="geometry"/>
                </mxCell>
                <mxCell id="189" value="" style="html=1;shadow=0;dashed=0;shape=mxgraph.bootstrap.rrect;rSize=5;fillColor=#E9ECEF;strokeColor=none;movable=0;resizable=0;rotatable=0;deletable=0;editable=0;locked=1;connectable=0;" parent="2" vertex="1">
                    <mxGeometry x="610" y="2165" width="270" height="30" as="geometry"/>
                </mxCell>
                <mxCell id="190" value="" style="html=1;shadow=0;dashed=0;shape=mxgraph.bootstrap.leftButton;rSize=5;fillColor=#FFBC26;strokeColor=none;resizeHeight=1;movable=0;resizable=0;rotatable=0;deletable=0;editable=0;locked=1;connectable=0;" parent="189" vertex="1">
                    <mxGeometry width="100" height="30" relative="1" as="geometry"/>
                </mxCell>
                <mxCell id="191" value="&lt;h1&gt;&lt;font style=&quot;color: rgb(0, 0, 0);&quot;&gt;Contact Me&lt;/font&gt;&lt;/h1&gt;" style="text;html=1;align=center;verticalAlign=middle;whiteSpace=wrap;rounded=0;movable=0;resizable=0;rotatable=0;deletable=0;editable=0;locked=1;connectable=0;" parent="2" vertex="1">
                    <mxGeometry x="383.25" y="2320" width="160" height="30" as="geometry"/>
                </mxCell>
                <mxCell id="192" value="&lt;i&gt;&lt;font style=&quot;color: rgb(128, 128, 128);&quot;&gt;&amp;nbsp; &amp;nbsp; &amp;nbsp; &amp;nbsp; &amp;nbsp; &amp;nbsp; Email&lt;/font&gt;&lt;/i&gt;" style="rounded=1;whiteSpace=wrap;html=1;strokeColor=none;fillColor=#E6E6E6;align=left;movable=0;resizable=0;rotatable=0;deletable=0;editable=0;locked=1;connectable=0;" parent="2" vertex="1">
                    <mxGeometry x="510" y="2430" width="390" height="40" as="geometry"/>
                </mxCell>
                <mxCell id="193" value="&lt;i&gt;&lt;font style=&quot;color: rgb(128, 128, 128);&quot;&gt;&amp;nbsp; &amp;nbsp; &amp;nbsp; &amp;nbsp; &amp;nbsp; &amp;nbsp; name&lt;/font&gt;&lt;/i&gt;" style="rounded=1;whiteSpace=wrap;html=1;strokeColor=none;fillColor=#E6E6E6;align=left;movable=0;resizable=0;rotatable=0;deletable=0;editable=0;locked=1;connectable=0;" parent="2" vertex="1">
                    <mxGeometry x="510" y="2490" width="390" height="40" as="geometry"/>
                </mxCell>
                <mxCell id="194" value="" style="rounded=1;whiteSpace=wrap;html=1;strokeColor=none;fillColor=#E6E6E6;align=left;arcSize=9;movable=0;resizable=0;rotatable=0;deletable=0;editable=0;locked=1;connectable=0;" parent="2" vertex="1">
                    <mxGeometry x="510" y="2550" width="390" height="170" as="geometry"/>
                </mxCell>
                <mxCell id="195" value="&lt;font face=&quot;Verdana&quot; style=&quot;font-size: 20px; color: rgb(255, 255, 255);&quot;&gt;Send Message&lt;/font&gt;" style="rounded=1;whiteSpace=wrap;html=1;arcSize=22;strokeColor=none;shadow=0;fillColor=#000000;movable=0;resizable=0;rotatable=0;deletable=0;editable=0;locked=1;connectable=0;" parent="2" vertex="1">
                    <mxGeometry x="750" y="2740" width="150" height="40" as="geometry"/>
                </mxCell>
                <mxCell id="196" value="&lt;font face=&quot;Verdana&quot; style=&quot;font-size: 20px; color: rgb(0, 0, 0);&quot;&gt;Remove&lt;/font&gt;" style="rounded=1;whiteSpace=wrap;html=1;arcSize=22;strokeColor=default;shadow=0;fillColor=#FFFFFF;align=center;strokeWidth=4;movable=0;resizable=0;rotatable=0;deletable=0;editable=0;locked=1;connectable=0;" parent="2" vertex="1">
                    <mxGeometry x="510" y="2740" width="230" height="40" as="geometry"/>
                </mxCell>
                <mxCell id="197" value="" style="rounded=1;whiteSpace=wrap;html=1;strokeColor=none;fillColor=#E6E6E6;align=left;arcSize=4;movable=0;resizable=0;rotatable=0;deletable=0;editable=0;locked=1;connectable=0;" parent="2" vertex="1">
                    <mxGeometry x="40" y="2430" width="440" height="350" as="geometry"/>
                </mxCell>
                <mxCell id="198" value="" style="rounded=1;whiteSpace=wrap;html=1;strokeColor=none;arcSize=9;movable=0;resizable=0;rotatable=0;deletable=0;editable=0;locked=1;connectable=0;" parent="2" vertex="1">
                    <mxGeometry x="72.5" y="2470" width="185" height="200" as="geometry"/>
                </mxCell>
                <mxCell id="199" value="" style="rounded=1;whiteSpace=wrap;html=1;strokeColor=none;arcSize=32;fillColor=#C9EBFF;movable=0;resizable=0;rotatable=0;deletable=0;editable=0;locked=1;connectable=0;" parent="2" vertex="1">
                    <mxGeometry x="200" y="2510" width="217.5" height="220" as="geometry"/>
                </mxCell>
                <mxCell id="200" value="" style="rounded=0;whiteSpace=wrap;html=1;fillColor=#000000;strokeColor=none;movable=0;resizable=0;rotatable=0;deletable=0;editable=0;locked=1;connectable=0;" parent="2" vertex="1">
                    <mxGeometry y="2840" width="930" height="270" as="geometry"/>
                </mxCell>
            </root>
        </mxGraphModel>
    </diagram>
    <diagram id="F-saILvGOvWrvKeg-dNd" name="Page-2">
        <mxGraphModel dx="1216" dy="827" grid="1" gridSize="10" guides="1" tooltips="1" connect="1" arrows="1" fold="1" page="1" pageScale="1" pageWidth="827" pageHeight="1169" math="0" shadow="0">
            <root>
                <mxCell id="0"/>
                <mxCell id="1" parent="0"/>
                <mxCell id="BX17k702RvWDPFYLnRnJ-1" value="" style="strokeWidth=1;shadow=0;dashed=0;align=center;html=1;shape=mxgraph.mockup.containers.browserWindow;rSize=0;strokeColor=#666666;strokeColor2=#008cff;strokeColor3=#c4c4c4;mainText=,;recursiveResize=0;fillColor=#E6E6E6;movable=0;resizable=0;rotatable=0;deletable=0;editable=0;locked=1;connectable=0;" vertex="1" parent="1">
                    <mxGeometry x="140" y="120" width="1120" height="3140" as="geometry"/>
                </mxCell>
                <mxCell id="BX17k702RvWDPFYLnRnJ-2" value="Page 1" style="strokeWidth=1;shadow=0;dashed=0;align=center;html=1;shape=mxgraph.mockup.containers.anchor;fontSize=17;fontColor=#666666;align=left;whiteSpace=wrap;movable=0;resizable=0;rotatable=0;deletable=0;editable=0;locked=1;connectable=0;" vertex="1" parent="BX17k702RvWDPFYLnRnJ-1">
                    <mxGeometry x="60" y="12" width="110" height="26" as="geometry"/>
                </mxCell>
                <mxCell id="BX17k702RvWDPFYLnRnJ-3" value="https://www.draw.io" style="strokeWidth=1;shadow=0;dashed=0;align=center;html=1;shape=mxgraph.mockup.containers.anchor;rSize=0;fontSize=17;fontColor=#666666;align=left;movable=0;resizable=0;rotatable=0;deletable=0;editable=0;locked=1;connectable=0;" vertex="1" parent="BX17k702RvWDPFYLnRnJ-1">
                    <mxGeometry x="130" y="60" width="250" height="26" as="geometry"/>
                </mxCell>
                <mxCell id="BX17k702RvWDPFYLnRnJ-6" value="" style="rounded=0;whiteSpace=wrap;html=1;strokeColor=none;movable=0;resizable=0;rotatable=0;deletable=0;editable=0;locked=1;connectable=0;" vertex="1" parent="BX17k702RvWDPFYLnRnJ-1">
                    <mxGeometry y="110" width="1120" height="60" as="geometry"/>
                </mxCell>
                <mxCell id="BX17k702RvWDPFYLnRnJ-7" value="&lt;h1&gt;&lt;b&gt;Raphael&lt;/b&gt;&lt;/h1&gt;" style="text;html=1;align=center;verticalAlign=middle;whiteSpace=wrap;rounded=0;movable=0;resizable=0;rotatable=0;deletable=0;editable=0;locked=1;connectable=0;" vertex="1" parent="BX17k702RvWDPFYLnRnJ-1">
                    <mxGeometry x="60" y="125" width="60" height="30" as="geometry"/>
                </mxCell>
                <mxCell id="BX17k702RvWDPFYLnRnJ-8" value="&lt;h4&gt;&lt;font style=&quot;font-size: 20px; font-weight: normal;&quot; face=&quot;Helvetica&quot;&gt;Text&lt;/font&gt;&lt;/h4&gt;" style="text;html=1;align=center;verticalAlign=middle;whiteSpace=wrap;rounded=0;movable=0;resizable=0;rotatable=0;deletable=0;editable=0;locked=1;connectable=0;" vertex="1" parent="BX17k702RvWDPFYLnRnJ-1">
                    <mxGeometry x="627" y="125" width="60" height="30" as="geometry"/>
                </mxCell>
                <mxCell id="BX17k702RvWDPFYLnRnJ-11" value="&lt;h4&gt;&lt;font style=&quot;font-size: 20px; font-weight: normal;&quot; face=&quot;Helvetica&quot;&gt;Text&lt;/font&gt;&lt;/h4&gt;" style="text;html=1;align=center;verticalAlign=middle;whiteSpace=wrap;rounded=0;movable=0;resizable=0;rotatable=0;deletable=0;editable=0;locked=1;connectable=0;" vertex="1" parent="BX17k702RvWDPFYLnRnJ-1">
                    <mxGeometry x="720" y="125" width="60" height="30" as="geometry"/>
                </mxCell>
                <mxCell id="BX17k702RvWDPFYLnRnJ-26" value="&lt;h4&gt;&lt;font style=&quot;font-size: 20px; font-weight: normal;&quot; face=&quot;Helvetica&quot;&gt;Text&lt;/font&gt;&lt;/h4&gt;" style="text;html=1;align=center;verticalAlign=middle;whiteSpace=wrap;rounded=0;movable=0;resizable=0;rotatable=0;deletable=0;editable=0;locked=1;connectable=0;" vertex="1" parent="BX17k702RvWDPFYLnRnJ-1">
                    <mxGeometry x="820" y="125" width="60" height="30" as="geometry"/>
                </mxCell>
                <mxCell id="BX17k702RvWDPFYLnRnJ-27" value="&lt;h4&gt;&lt;font style=&quot;font-size: 20px; font-weight: normal;&quot; face=&quot;Helvetica&quot;&gt;Text&lt;/font&gt;&lt;/h4&gt;" style="text;html=1;align=center;verticalAlign=middle;whiteSpace=wrap;rounded=0;movable=0;resizable=0;rotatable=0;deletable=0;editable=0;locked=1;connectable=0;" vertex="1" parent="BX17k702RvWDPFYLnRnJ-1">
                    <mxGeometry x="920" y="125" width="60" height="30" as="geometry"/>
                </mxCell>
                <mxCell id="BX17k702RvWDPFYLnRnJ-28" value="" style="ellipse;whiteSpace=wrap;html=1;aspect=fixed;strokeColor=none;movable=0;resizable=0;rotatable=0;deletable=0;editable=0;locked=1;connectable=0;" vertex="1" parent="BX17k702RvWDPFYLnRnJ-1">
                    <mxGeometry x="450" y="290" width="220" height="220" as="geometry"/>
                </mxCell>
                <mxCell id="BX17k702RvWDPFYLnRnJ-29" value="&lt;h1 style=&quot;text-align: center; margin-top: 0px;&quot;&gt;Heading&lt;/h1&gt;&lt;p style=&quot;text-align: center;&quot;&gt;Lorem ipsum dolor sit amet, consectetur adipisicing elit, sed do eiusmod tempor incididunt ut labore et dolore magna aliqua.&lt;/p&gt;&lt;p style=&quot;text-align: center;&quot;&gt;&lt;span style=&quot;color: rgb(63, 63, 63);&quot;&gt;Lorem ipsum dolor sit amet, consectetur adipisicing elit, sed do eiusmod tempor incididunt ut labore et dolore magna aliqua.&lt;/span&gt;&lt;/p&gt;&lt;p style=&quot;text-align: center;&quot;&gt;&lt;span style=&quot;color: rgb(63, 63, 63);&quot;&gt;Lorem ipsum dolor sit amet, consectetur adipisicing elit, sed do eiusmod tempor incididunt ut labore et dolore magna aliqua.&lt;/span&gt;&lt;span style=&quot;color: rgb(63, 63, 63);&quot;&gt;&lt;/span&gt;&lt;/p&gt;" style="text;html=1;whiteSpace=wrap;overflow=hidden;rounded=0;movable=0;resizable=0;rotatable=0;deletable=0;editable=0;locked=1;connectable=0;" vertex="1" parent="BX17k702RvWDPFYLnRnJ-1">
                    <mxGeometry x="370" y="530" width="380" height="120" as="geometry"/>
                </mxCell>
                <mxCell id="BX17k702RvWDPFYLnRnJ-32" value="Primary" style="rounded=1;fillColor=#0057D8;strokeColor=none;html=1;whiteSpace=wrap;fontColor=#ffffff;align=center;verticalAlign=middle;fontStyle=0;fontSize=12;sketch=0;arcSize=50;movable=0;resizable=0;rotatable=0;deletable=0;editable=0;locked=1;connectable=0;" vertex="1" parent="BX17k702RvWDPFYLnRnJ-1">
                    <mxGeometry x="380" y="670" width="160" height="40" as="geometry"/>
                </mxCell>
                <mxCell id="BX17k702RvWDPFYLnRnJ-33" value="&lt;font style=&quot;color: rgb(0, 0, 0);&quot;&gt;Primary&lt;/font&gt;" style="rounded=1;fillColor=none;strokeColor=#0000FF;html=1;whiteSpace=wrap;fontColor=#ffffff;align=center;verticalAlign=middle;fontStyle=0;fontSize=12;sketch=0;strokeWidth=4;arcSize=50;movable=0;resizable=0;rotatable=0;deletable=0;editable=0;locked=1;connectable=0;" vertex="1" parent="BX17k702RvWDPFYLnRnJ-1">
                    <mxGeometry x="570" y="670" width="160" height="40" as="geometry"/>
                </mxCell>
                <mxCell id="BX17k702RvWDPFYLnRnJ-34" value="" style="rounded=0;whiteSpace=wrap;html=1;strokeColor=none;movable=0;resizable=0;rotatable=0;deletable=0;editable=0;locked=1;connectable=0;" vertex="1" parent="BX17k702RvWDPFYLnRnJ-1">
                    <mxGeometry y="760" width="1120" height="590" as="geometry"/>
                </mxCell>
                <mxCell id="BX17k702RvWDPFYLnRnJ-37" value="&lt;h1 style=&quot;margin-top: 0px;&quot;&gt;&lt;font style=&quot;font-size: 21px;&quot;&gt;Heading&lt;/font&gt;&lt;/h1&gt;&lt;p style=&quot;&quot;&gt;&lt;font style=&quot;font-size: 21px;&quot;&gt;Lorem ipsum dolor sit amet, consectetur adipisicing elit, sed do eiusmod tempor incididunt ut labore et dolore magna aliqua.&lt;/font&gt;&lt;/p&gt;&lt;p style=&quot;&quot;&gt;&lt;span style=&quot;color: rgb(63, 63, 63);&quot;&gt;&lt;font style=&quot;font-size: 21px;&quot;&gt;Lorem ipsum dolor sit amet, consectetur adipisicing elit, sed do eiusmod tempor incididunt ut labore et dolore magna aliqua.&lt;/font&gt;&lt;/span&gt;&lt;/p&gt;&lt;p style=&quot;&quot;&gt;&lt;span style=&quot;color: rgb(63, 63, 63);&quot;&gt;&lt;font style=&quot;font-size: 21px;&quot;&gt;Lorem ipsum dolor sit amet, consectetur adipisicing elit, sed do eiusmod tempor incididunt ut labore et dolore magna aliqua.&lt;/font&gt;&lt;/span&gt;&lt;span style=&quot;color: rgb(63, 63, 63);&quot;&gt;&lt;/span&gt;&lt;/p&gt;" style="text;html=1;whiteSpace=wrap;overflow=hidden;rounded=0;movable=0;resizable=0;rotatable=0;deletable=0;editable=0;locked=1;connectable=0;" vertex="1" parent="BX17k702RvWDPFYLnRnJ-1">
                    <mxGeometry x="60" y="940" width="466" height="310" as="geometry"/>
                </mxCell>
                <mxCell id="BX17k702RvWDPFYLnRnJ-38" value="" style="rounded=1;whiteSpace=wrap;html=1;fillColor=#E6E6E6;strokeColor=none;movable=0;resizable=0;rotatable=0;deletable=0;editable=0;locked=1;connectable=0;" vertex="1" parent="BX17k702RvWDPFYLnRnJ-1">
                    <mxGeometry x="586" y="970" width="240" height="80" as="geometry"/>
                </mxCell>
                <mxCell id="BX17k702RvWDPFYLnRnJ-44" value="" style="rounded=1;whiteSpace=wrap;html=1;fillColor=#E6E6E6;strokeColor=none;movable=0;resizable=0;rotatable=0;deletable=0;editable=0;locked=1;connectable=0;" vertex="1" parent="BX17k702RvWDPFYLnRnJ-1">
                    <mxGeometry x="586" y="1170" width="240" height="80" as="geometry"/>
                </mxCell>
                <mxCell id="BX17k702RvWDPFYLnRnJ-45" value="" style="rounded=1;whiteSpace=wrap;html=1;fillColor=#E6E6E6;strokeColor=none;movable=0;resizable=0;rotatable=0;deletable=0;editable=0;locked=1;connectable=0;" vertex="1" parent="BX17k702RvWDPFYLnRnJ-1">
                    <mxGeometry x="586" y="1070" width="240" height="80" as="geometry"/>
                </mxCell>
                <mxCell id="BX17k702RvWDPFYLnRnJ-46" value="" style="rounded=1;whiteSpace=wrap;html=1;fillColor=#E6E6E6;strokeColor=none;movable=0;resizable=0;rotatable=0;deletable=0;editable=0;locked=1;connectable=0;" vertex="1" parent="BX17k702RvWDPFYLnRnJ-1">
                    <mxGeometry x="837" y="970" width="240" height="80" as="geometry"/>
                </mxCell>
                <mxCell id="BX17k702RvWDPFYLnRnJ-47" value="" style="rounded=1;whiteSpace=wrap;html=1;fillColor=#E6E6E6;strokeColor=none;movable=0;resizable=0;rotatable=0;deletable=0;editable=0;locked=1;connectable=0;" vertex="1" parent="BX17k702RvWDPFYLnRnJ-1">
                    <mxGeometry x="837" y="1070" width="240" height="80" as="geometry"/>
                </mxCell>
                <mxCell id="BX17k702RvWDPFYLnRnJ-48" value="" style="rounded=1;whiteSpace=wrap;html=1;fillColor=#E6E6E6;strokeColor=none;movable=0;resizable=0;rotatable=0;deletable=0;editable=0;locked=1;connectable=0;" vertex="1" parent="BX17k702RvWDPFYLnRnJ-1">
                    <mxGeometry x="837" y="1170" width="240" height="80" as="geometry"/>
                </mxCell>
                <mxCell id="BX17k702RvWDPFYLnRnJ-51" value="" style="group;movable=0;resizable=0;rotatable=0;deletable=0;editable=0;locked=1;connectable=0;" vertex="1" connectable="0" parent="BX17k702RvWDPFYLnRnJ-1">
                    <mxGeometry x="490" y="820" width="140" height="50" as="geometry"/>
                </mxCell>
                <mxCell id="BX17k702RvWDPFYLnRnJ-35" value="&lt;h1&gt;Text ds fs&lt;/h1&gt;" style="text;html=1;align=center;verticalAlign=middle;whiteSpace=wrap;rounded=0;movable=0;resizable=0;rotatable=0;deletable=0;editable=0;locked=1;connectable=0;" vertex="1" parent="BX17k702RvWDPFYLnRnJ-51">
                    <mxGeometry width="140" height="30" as="geometry"/>
                </mxCell>
                <mxCell id="BX17k702RvWDPFYLnRnJ-50" value="" style="verticalLabelPosition=bottom;shadow=0;dashed=0;align=center;html=1;verticalAlign=top;strokeWidth=6;shape=mxgraph.mockup.markup.line;strokeColor=#66B2FF;movable=0;resizable=0;rotatable=0;deletable=0;editable=0;locked=1;connectable=0;" vertex="1" parent="BX17k702RvWDPFYLnRnJ-51">
                    <mxGeometry x="20" y="30" width="100" height="20" as="geometry"/>
                </mxCell>
                <mxCell id="BX17k702RvWDPFYLnRnJ-52" value="" style="group;movable=0;resizable=0;rotatable=0;deletable=0;editable=0;locked=1;connectable=0;" vertex="1" connectable="0" parent="BX17k702RvWDPFYLnRnJ-1">
                    <mxGeometry x="490" y="1430" width="140" height="50" as="geometry"/>
                </mxCell>
                <mxCell id="BX17k702RvWDPFYLnRnJ-53" value="&lt;h1&gt;Text ds fs&lt;/h1&gt;" style="text;html=1;align=center;verticalAlign=middle;whiteSpace=wrap;rounded=0;movable=0;resizable=0;rotatable=0;deletable=0;editable=0;locked=1;connectable=0;" vertex="1" parent="BX17k702RvWDPFYLnRnJ-52">
                    <mxGeometry width="140" height="30" as="geometry"/>
                </mxCell>
                <mxCell id="BX17k702RvWDPFYLnRnJ-54" value="" style="verticalLabelPosition=bottom;shadow=0;dashed=0;align=center;html=1;verticalAlign=top;strokeWidth=6;shape=mxgraph.mockup.markup.line;strokeColor=#66B2FF;movable=0;resizable=0;rotatable=0;deletable=0;editable=0;locked=1;connectable=0;" vertex="1" parent="BX17k702RvWDPFYLnRnJ-52">
                    <mxGeometry x="20" y="30" width="100" height="20" as="geometry"/>
                </mxCell>
                <mxCell id="BX17k702RvWDPFYLnRnJ-55" value="&lt;h1 style=&quot;margin-top: 0px;&quot;&gt;&lt;span style=&quot;font-size: 21px; background-color: transparent; font-weight: normal;&quot;&gt;Lorem ipsum dolor sit amet, consectetur adipisicing elit, sed do eiusmod tempor incididun&lt;/span&gt;&lt;/h1&gt;" style="text;html=1;whiteSpace=wrap;overflow=hidden;rounded=0;align=center;movable=0;resizable=0;rotatable=0;deletable=0;editable=0;locked=1;connectable=0;" vertex="1" parent="BX17k702RvWDPFYLnRnJ-1">
                    <mxGeometry x="340" y="1490" width="466" height="90" as="geometry"/>
                </mxCell>
                <mxCell id="BX17k702RvWDPFYLnRnJ-60" value="&lt;b&gt;&lt;font style=&quot;font-size: 20px&quot;&gt;Card title&lt;/font&gt;&lt;/b&gt;&lt;br style=&quot;font-size: 14px&quot;&gt;&lt;br style=&quot;font-size: 14px&quot;&gt;Some quick example text to build on the card title and make up the bulk of the card&#39;s content." style="html=1;shadow=0;dashed=0;shape=mxgraph.bootstrap.rrect;rSize=5;strokeColor=#DFDFDF;html=1;whiteSpace=wrap;fillColor=#ffffff;fontColor=#000000;verticalAlign=bottom;align=left;spacing=20;spacingBottom=50;fontSize=14;movable=0;resizable=0;rotatable=0;deletable=0;editable=0;locked=1;connectable=0;" vertex="1" parent="BX17k702RvWDPFYLnRnJ-1">
                    <mxGeometry x="60" y="1580" width="300" height="350" as="geometry"/>
                </mxCell>
                <mxCell id="BX17k702RvWDPFYLnRnJ-61" value="Image cap" style="html=1;shadow=0;dashed=0;shape=mxgraph.bootstrap.topButton;rSize=5;perimeter=none;whiteSpace=wrap;fillColor=#868E96;strokeColor=#DFDFDF;fontColor=#DEE2E6;resizeWidth=1;fontSize=18;movable=0;resizable=0;rotatable=0;deletable=0;editable=0;locked=1;connectable=0;" vertex="1" parent="BX17k702RvWDPFYLnRnJ-60">
                    <mxGeometry width="300" height="180" relative="1" as="geometry"/>
                </mxCell>
                <mxCell id="BX17k702RvWDPFYLnRnJ-62" value="Go somewhere" style="html=1;shadow=0;dashed=0;shape=mxgraph.bootstrap.rrect;rSize=5;perimeter=none;whiteSpace=wrap;fillColor=#0085FC;strokeColor=none;fontColor=#ffffff;resizeWidth=1;fontSize=14;movable=0;resizable=0;rotatable=0;deletable=0;editable=0;locked=1;connectable=0;" vertex="1" parent="BX17k702RvWDPFYLnRnJ-60">
                    <mxGeometry y="1" width="144" height="40" relative="1" as="geometry">
                        <mxPoint x="20" y="-60" as="offset"/>
                    </mxGeometry>
                </mxCell>
                <mxCell id="BX17k702RvWDPFYLnRnJ-63" value="&lt;b&gt;&lt;font style=&quot;font-size: 20px&quot;&gt;Card title&lt;/font&gt;&lt;/b&gt;&lt;br style=&quot;font-size: 14px&quot;&gt;&lt;br style=&quot;font-size: 14px&quot;&gt;Some quick example text to build on the card title and make up the bulk of the card&#39;s content." style="html=1;shadow=0;dashed=0;shape=mxgraph.bootstrap.rrect;rSize=5;strokeColor=#DFDFDF;html=1;whiteSpace=wrap;fillColor=#ffffff;fontColor=#000000;verticalAlign=bottom;align=left;spacing=20;spacingBottom=50;fontSize=14;movable=0;resizable=0;rotatable=0;deletable=0;editable=0;locked=1;connectable=0;" vertex="1" parent="BX17k702RvWDPFYLnRnJ-1">
                    <mxGeometry x="415" y="1580" width="300" height="350" as="geometry"/>
                </mxCell>
                <mxCell id="BX17k702RvWDPFYLnRnJ-64" value="Image cap" style="html=1;shadow=0;dashed=0;shape=mxgraph.bootstrap.topButton;rSize=5;perimeter=none;whiteSpace=wrap;fillColor=#868E96;strokeColor=#DFDFDF;fontColor=#DEE2E6;resizeWidth=1;fontSize=18;movable=0;resizable=0;rotatable=0;deletable=0;editable=0;locked=1;connectable=0;" vertex="1" parent="BX17k702RvWDPFYLnRnJ-63">
                    <mxGeometry width="300" height="180" relative="1" as="geometry"/>
                </mxCell>
                <mxCell id="BX17k702RvWDPFYLnRnJ-65" value="Go somewhere" style="html=1;shadow=0;dashed=0;shape=mxgraph.bootstrap.rrect;rSize=5;perimeter=none;whiteSpace=wrap;fillColor=#0085FC;strokeColor=none;fontColor=#ffffff;resizeWidth=1;fontSize=14;movable=0;resizable=0;rotatable=0;deletable=0;editable=0;locked=1;connectable=0;" vertex="1" parent="BX17k702RvWDPFYLnRnJ-63">
                    <mxGeometry y="1" width="144" height="40" relative="1" as="geometry">
                        <mxPoint x="20" y="-60" as="offset"/>
                    </mxGeometry>
                </mxCell>
                <mxCell id="BX17k702RvWDPFYLnRnJ-66" value="&lt;b&gt;&lt;font style=&quot;font-size: 20px&quot;&gt;Card title&lt;/font&gt;&lt;/b&gt;&lt;br style=&quot;font-size: 14px&quot;&gt;&lt;br style=&quot;font-size: 14px&quot;&gt;Some quick example text to build on the card title and make up the bulk of the card&#39;s content." style="html=1;shadow=0;dashed=0;shape=mxgraph.bootstrap.rrect;rSize=5;strokeColor=#DFDFDF;html=1;whiteSpace=wrap;fillColor=#ffffff;fontColor=#000000;verticalAlign=bottom;align=left;spacing=20;spacingBottom=50;fontSize=14;movable=0;resizable=0;rotatable=0;deletable=0;editable=0;locked=1;connectable=0;" vertex="1" parent="BX17k702RvWDPFYLnRnJ-1">
                    <mxGeometry x="770" y="1580" width="300" height="350" as="geometry"/>
                </mxCell>
                <mxCell id="BX17k702RvWDPFYLnRnJ-67" value="Image cap" style="html=1;shadow=0;dashed=0;shape=mxgraph.bootstrap.topButton;rSize=5;perimeter=none;whiteSpace=wrap;fillColor=#868E96;strokeColor=#DFDFDF;fontColor=#DEE2E6;resizeWidth=1;fontSize=18;movable=0;resizable=0;rotatable=0;deletable=0;editable=0;locked=1;connectable=0;" vertex="1" parent="BX17k702RvWDPFYLnRnJ-66">
                    <mxGeometry width="300" height="180" relative="1" as="geometry"/>
                </mxCell>
                <mxCell id="BX17k702RvWDPFYLnRnJ-68" value="Go somewhere" style="html=1;shadow=0;dashed=0;shape=mxgraph.bootstrap.rrect;rSize=5;perimeter=none;whiteSpace=wrap;fillColor=#0085FC;strokeColor=none;fontColor=#ffffff;resizeWidth=1;fontSize=14;movable=0;resizable=0;rotatable=0;deletable=0;editable=0;locked=1;connectable=0;" vertex="1" parent="BX17k702RvWDPFYLnRnJ-66">
                    <mxGeometry y="1" width="144" height="40" relative="1" as="geometry">
                        <mxPoint x="20" y="-60" as="offset"/>
                    </mxGeometry>
                </mxCell>
                <mxCell id="BX17k702RvWDPFYLnRnJ-69" value="&lt;b&gt;&lt;font style=&quot;font-size: 20px&quot;&gt;Card title&lt;/font&gt;&lt;/b&gt;&lt;br style=&quot;font-size: 14px&quot;&gt;&lt;br style=&quot;font-size: 14px&quot;&gt;Some quick example text to build on the card title and make up the bulk of the card&#39;s content." style="html=1;shadow=0;dashed=0;shape=mxgraph.bootstrap.rrect;rSize=5;strokeColor=#DFDFDF;html=1;whiteSpace=wrap;fillColor=#ffffff;fontColor=#000000;verticalAlign=bottom;align=left;spacing=20;spacingBottom=50;fontSize=14;movable=0;resizable=0;rotatable=0;deletable=0;editable=0;locked=1;connectable=0;" vertex="1" parent="BX17k702RvWDPFYLnRnJ-1">
                    <mxGeometry x="60" y="1960" width="300" height="350" as="geometry"/>
                </mxCell>
                <mxCell id="BX17k702RvWDPFYLnRnJ-70" value="Image cap" style="html=1;shadow=0;dashed=0;shape=mxgraph.bootstrap.topButton;rSize=5;perimeter=none;whiteSpace=wrap;fillColor=#868E96;strokeColor=#DFDFDF;fontColor=#DEE2E6;resizeWidth=1;fontSize=18;movable=0;resizable=0;rotatable=0;deletable=0;editable=0;locked=1;connectable=0;" vertex="1" parent="BX17k702RvWDPFYLnRnJ-69">
                    <mxGeometry width="300" height="180" relative="1" as="geometry"/>
                </mxCell>
                <mxCell id="BX17k702RvWDPFYLnRnJ-71" value="Go somewhere" style="html=1;shadow=0;dashed=0;shape=mxgraph.bootstrap.rrect;rSize=5;perimeter=none;whiteSpace=wrap;fillColor=#0085FC;strokeColor=none;fontColor=#ffffff;resizeWidth=1;fontSize=14;movable=0;resizable=0;rotatable=0;deletable=0;editable=0;locked=1;connectable=0;" vertex="1" parent="BX17k702RvWDPFYLnRnJ-69">
                    <mxGeometry y="1" width="144" height="40" relative="1" as="geometry">
                        <mxPoint x="20" y="-60" as="offset"/>
                    </mxGeometry>
                </mxCell>
                <mxCell id="BX17k702RvWDPFYLnRnJ-72" value="&lt;b&gt;&lt;font style=&quot;font-size: 20px&quot;&gt;Card title&lt;/font&gt;&lt;/b&gt;&lt;br style=&quot;font-size: 14px&quot;&gt;&lt;br style=&quot;font-size: 14px&quot;&gt;Some quick example text to build on the card title and make up the bulk of the card&#39;s content." style="html=1;shadow=0;dashed=0;shape=mxgraph.bootstrap.rrect;rSize=5;strokeColor=#DFDFDF;html=1;whiteSpace=wrap;fillColor=#ffffff;fontColor=#000000;verticalAlign=bottom;align=left;spacing=20;spacingBottom=50;fontSize=14;movable=0;resizable=0;rotatable=0;deletable=0;editable=0;locked=1;connectable=0;" vertex="1" parent="BX17k702RvWDPFYLnRnJ-1">
                    <mxGeometry x="415" y="1960" width="300" height="350" as="geometry"/>
                </mxCell>
                <mxCell id="BX17k702RvWDPFYLnRnJ-73" value="Image cap" style="html=1;shadow=0;dashed=0;shape=mxgraph.bootstrap.topButton;rSize=5;perimeter=none;whiteSpace=wrap;fillColor=#868E96;strokeColor=#DFDFDF;fontColor=#DEE2E6;resizeWidth=1;fontSize=18;movable=0;resizable=0;rotatable=0;deletable=0;editable=0;locked=1;connectable=0;" vertex="1" parent="BX17k702RvWDPFYLnRnJ-72">
                    <mxGeometry width="300" height="180" relative="1" as="geometry"/>
                </mxCell>
                <mxCell id="BX17k702RvWDPFYLnRnJ-74" value="Go somewhere" style="html=1;shadow=0;dashed=0;shape=mxgraph.bootstrap.rrect;rSize=5;perimeter=none;whiteSpace=wrap;fillColor=#0085FC;strokeColor=none;fontColor=#ffffff;resizeWidth=1;fontSize=14;movable=0;resizable=0;rotatable=0;deletable=0;editable=0;locked=1;connectable=0;" vertex="1" parent="BX17k702RvWDPFYLnRnJ-72">
                    <mxGeometry y="1" width="144" height="40" relative="1" as="geometry">
                        <mxPoint x="20" y="-60" as="offset"/>
                    </mxGeometry>
                </mxCell>
                <mxCell id="BX17k702RvWDPFYLnRnJ-75" value="&lt;b&gt;&lt;font style=&quot;font-size: 20px&quot;&gt;Card title&lt;/font&gt;&lt;/b&gt;&lt;br style=&quot;font-size: 14px&quot;&gt;&lt;br style=&quot;font-size: 14px&quot;&gt;Some quick example text to build on the card title and make up the bulk of the card&#39;s content." style="html=1;shadow=0;dashed=0;shape=mxgraph.bootstrap.rrect;rSize=5;strokeColor=#DFDFDF;html=1;whiteSpace=wrap;fillColor=#ffffff;fontColor=#000000;verticalAlign=bottom;align=left;spacing=20;spacingBottom=50;fontSize=14;movable=0;resizable=0;rotatable=0;deletable=0;editable=0;locked=1;connectable=0;" vertex="1" parent="BX17k702RvWDPFYLnRnJ-1">
                    <mxGeometry x="770" y="1960" width="300" height="350" as="geometry"/>
                </mxCell>
                <mxCell id="BX17k702RvWDPFYLnRnJ-76" value="Image cap" style="html=1;shadow=0;dashed=0;shape=mxgraph.bootstrap.topButton;rSize=5;perimeter=none;whiteSpace=wrap;fillColor=#868E96;strokeColor=#DFDFDF;fontColor=#DEE2E6;resizeWidth=1;fontSize=18;movable=0;resizable=0;rotatable=0;deletable=0;editable=0;locked=1;connectable=0;" vertex="1" parent="BX17k702RvWDPFYLnRnJ-75">
                    <mxGeometry width="300" height="180" relative="1" as="geometry"/>
                </mxCell>
                <mxCell id="BX17k702RvWDPFYLnRnJ-77" value="Go somewhere" style="html=1;shadow=0;dashed=0;shape=mxgraph.bootstrap.rrect;rSize=5;perimeter=none;whiteSpace=wrap;fillColor=#0085FC;strokeColor=none;fontColor=#ffffff;resizeWidth=1;fontSize=14;movable=0;resizable=0;rotatable=0;deletable=0;editable=0;locked=1;connectable=0;" vertex="1" parent="BX17k702RvWDPFYLnRnJ-75">
                    <mxGeometry y="1" width="144" height="40" relative="1" as="geometry">
                        <mxPoint x="20" y="-60" as="offset"/>
                    </mxGeometry>
                </mxCell>
                <mxCell id="BX17k702RvWDPFYLnRnJ-78" value="" style="rounded=0;whiteSpace=wrap;html=1;strokeColor=none;movable=0;resizable=0;rotatable=0;deletable=0;editable=0;locked=1;connectable=0;" vertex="1" parent="BX17k702RvWDPFYLnRnJ-1">
                    <mxGeometry y="2370" width="1120" height="690" as="geometry"/>
                </mxCell>
                <mxCell id="BX17k702RvWDPFYLnRnJ-79" value="" style="group;movable=0;resizable=0;rotatable=0;deletable=0;editable=0;locked=1;connectable=0;" vertex="1" connectable="0" parent="BX17k702RvWDPFYLnRnJ-1">
                    <mxGeometry x="490" y="2390" width="140" height="50" as="geometry"/>
                </mxCell>
                <mxCell id="BX17k702RvWDPFYLnRnJ-80" value="&lt;h1&gt;Text ds fs&lt;/h1&gt;" style="text;html=1;align=center;verticalAlign=middle;whiteSpace=wrap;rounded=0;movable=0;resizable=0;rotatable=0;deletable=0;editable=0;locked=1;connectable=0;" vertex="1" parent="BX17k702RvWDPFYLnRnJ-79">
                    <mxGeometry width="140" height="30" as="geometry"/>
                </mxCell>
                <mxCell id="BX17k702RvWDPFYLnRnJ-81" value="" style="verticalLabelPosition=bottom;shadow=0;dashed=0;align=center;html=1;verticalAlign=top;strokeWidth=6;shape=mxgraph.mockup.markup.line;strokeColor=#66B2FF;movable=0;resizable=0;rotatable=0;deletable=0;editable=0;locked=1;connectable=0;" vertex="1" parent="BX17k702RvWDPFYLnRnJ-79">
                    <mxGeometry x="20" y="30" width="100" height="20" as="geometry"/>
                </mxCell>
                <mxCell id="BX17k702RvWDPFYLnRnJ-82" value="&lt;h1 style=&quot;margin-top: 0px;&quot;&gt;&lt;span style=&quot;font-size: 21px; background-color: transparent; font-weight: normal;&quot;&gt;Lorem ipsum dolor sit amet, consectetur adipisicing elit, sed do eiusmod tempor incididun&lt;/span&gt;&lt;/h1&gt;" style="text;html=1;whiteSpace=wrap;overflow=hidden;rounded=0;align=center;movable=0;resizable=0;rotatable=0;deletable=0;editable=0;locked=1;connectable=0;" vertex="1" parent="BX17k702RvWDPFYLnRnJ-1">
                    <mxGeometry x="340" y="2450" width="466" height="90" as="geometry"/>
                </mxCell>
                <mxCell id="BX17k702RvWDPFYLnRnJ-87" value="" style="group;movable=0;resizable=0;rotatable=0;deletable=0;editable=0;locked=1;connectable=0;" vertex="1" connectable="0" parent="BX17k702RvWDPFYLnRnJ-1">
                    <mxGeometry x="580" y="2540" width="473" height="80" as="geometry"/>
                </mxCell>
                <mxCell id="BX17k702RvWDPFYLnRnJ-83" value="" style="rounded=1;whiteSpace=wrap;html=1;strokeColor=none;fillColor=#E6E6E6;movable=0;resizable=0;rotatable=0;deletable=0;editable=0;locked=1;connectable=0;" vertex="1" parent="BX17k702RvWDPFYLnRnJ-87">
                    <mxGeometry y="30" width="473" height="50" as="geometry"/>
                </mxCell>
                <mxCell id="BX17k702RvWDPFYLnRnJ-85" value="&lt;b&gt;&lt;font style=&quot;font-size: 15px;&quot;&gt;Text&lt;/font&gt;&lt;/b&gt;" style="text;html=1;align=left;verticalAlign=middle;whiteSpace=wrap;rounded=0;movable=0;resizable=0;rotatable=0;deletable=0;editable=0;locked=1;connectable=0;" vertex="1" parent="BX17k702RvWDPFYLnRnJ-87">
                    <mxGeometry width="60" height="30" as="geometry"/>
                </mxCell>
                <mxCell id="BX17k702RvWDPFYLnRnJ-88" value="" style="group;movable=0;resizable=0;rotatable=0;deletable=0;editable=0;locked=1;connectable=0;" vertex="1" connectable="0" parent="BX17k702RvWDPFYLnRnJ-1">
                    <mxGeometry x="580" y="2630" width="473" height="80" as="geometry"/>
                </mxCell>
                <mxCell id="BX17k702RvWDPFYLnRnJ-89" value="" style="rounded=1;whiteSpace=wrap;html=1;strokeColor=none;fillColor=#E6E6E6;movable=0;resizable=0;rotatable=0;deletable=0;editable=0;locked=1;connectable=0;" vertex="1" parent="BX17k702RvWDPFYLnRnJ-88">
                    <mxGeometry y="30" width="473" height="50" as="geometry"/>
                </mxCell>
                <mxCell id="BX17k702RvWDPFYLnRnJ-90" value="&lt;b&gt;&lt;font style=&quot;font-size: 15px;&quot;&gt;Text&lt;/font&gt;&lt;/b&gt;" style="text;html=1;align=left;verticalAlign=middle;whiteSpace=wrap;rounded=0;movable=0;resizable=0;rotatable=0;deletable=0;editable=0;locked=1;connectable=0;" vertex="1" parent="BX17k702RvWDPFYLnRnJ-88">
                    <mxGeometry width="60" height="30" as="geometry"/>
                </mxCell>
                <mxCell id="BX17k702RvWDPFYLnRnJ-91" value="" style="group;movable=0;resizable=0;rotatable=0;deletable=0;editable=0;locked=1;connectable=0;" vertex="1" connectable="0" parent="BX17k702RvWDPFYLnRnJ-1">
                    <mxGeometry x="580" y="2723" width="473" height="237" as="geometry"/>
                </mxCell>
                <mxCell id="BX17k702RvWDPFYLnRnJ-92" value="" style="rounded=1;whiteSpace=wrap;html=1;strokeColor=none;fillColor=#E6E6E6;arcSize=9;movable=0;resizable=0;rotatable=0;deletable=0;editable=0;locked=1;connectable=0;" vertex="1" parent="BX17k702RvWDPFYLnRnJ-91">
                    <mxGeometry y="32.31818181818182" width="473" height="204.68181818181822" as="geometry"/>
                </mxCell>
                <mxCell id="BX17k702RvWDPFYLnRnJ-93" value="&lt;b&gt;&lt;font style=&quot;font-size: 15px;&quot;&gt;Text&lt;/font&gt;&lt;/b&gt;" style="text;html=1;align=left;verticalAlign=middle;whiteSpace=wrap;rounded=0;movable=0;resizable=0;rotatable=0;deletable=0;editable=0;locked=1;connectable=0;" vertex="1" parent="BX17k702RvWDPFYLnRnJ-91">
                    <mxGeometry width="60" height="32.31818181818182" as="geometry"/>
                </mxCell>
                <mxCell id="BX17k702RvWDPFYLnRnJ-94" value="Primary" style="rounded=1;fillColor=#0057D8;strokeColor=none;html=1;whiteSpace=wrap;fontColor=#ffffff;align=center;verticalAlign=middle;fontStyle=0;fontSize=12;sketch=0;arcSize=50;movable=0;resizable=0;rotatable=0;deletable=0;editable=0;locked=1;connectable=0;" vertex="1" parent="BX17k702RvWDPFYLnRnJ-1">
                    <mxGeometry x="580" y="2980" width="200" height="40" as="geometry"/>
                </mxCell>
                <mxCell id="BX17k702RvWDPFYLnRnJ-95" value="&lt;font style=&quot;color: rgb(0, 0, 0);&quot;&gt;Primary&lt;/font&gt;" style="rounded=1;fillColor=none;strokeColor=#0000FF;html=1;whiteSpace=wrap;fontColor=#ffffff;align=center;verticalAlign=middle;fontStyle=0;fontSize=12;sketch=0;strokeWidth=4;arcSize=50;movable=0;resizable=0;rotatable=0;deletable=0;editable=0;locked=1;connectable=0;" vertex="1" parent="BX17k702RvWDPFYLnRnJ-1">
                    <mxGeometry x="800" y="2980" width="253" height="40" as="geometry"/>
                </mxCell>
                <mxCell id="BX17k702RvWDPFYLnRnJ-96" value="&lt;h1&gt;Text ds fs&lt;/h1&gt;" style="text;html=1;align=center;verticalAlign=middle;whiteSpace=wrap;rounded=0;movable=0;resizable=0;rotatable=0;deletable=0;editable=0;locked=1;connectable=0;" vertex="1" parent="BX17k702RvWDPFYLnRnJ-1">
                    <mxGeometry x="60" y="2580" width="140" height="30" as="geometry"/>
                </mxCell>
                <mxCell id="BX17k702RvWDPFYLnRnJ-98" value="" style="rounded=1;whiteSpace=wrap;html=1;strokeColor=none;fillColor=#E6E6E6;movable=0;resizable=0;rotatable=0;deletable=0;editable=0;locked=1;connectable=0;" vertex="1" parent="BX17k702RvWDPFYLnRnJ-1">
                    <mxGeometry x="70" y="2630" width="70" height="60" as="geometry"/>
                </mxCell>
                <mxCell id="BX17k702RvWDPFYLnRnJ-100" value="" style="group;movable=0;resizable=0;rotatable=0;deletable=0;editable=0;locked=1;connectable=0;" vertex="1" connectable="0" parent="BX17k702RvWDPFYLnRnJ-1">
                    <mxGeometry x="160" y="2630" width="210" height="60" as="geometry"/>
                </mxCell>
                <mxCell id="BX17k702RvWDPFYLnRnJ-97" value="&lt;h1 style=&quot;margin-top: 0px;&quot;&gt;&lt;span style=&quot;font-size: 21px; background-color: transparent; font-weight: normal;&quot;&gt;Lorem ipsum dolor si&lt;/span&gt;&lt;/h1&gt;" style="text;html=1;whiteSpace=wrap;overflow=hidden;rounded=0;align=left;movable=0;resizable=0;rotatable=0;deletable=0;editable=0;locked=1;connectable=0;" vertex="1" parent="BX17k702RvWDPFYLnRnJ-100">
                    <mxGeometry y="17.142857142857142" width="210" height="42.857142857142854" as="geometry"/>
                </mxCell>
                <mxCell id="BX17k702RvWDPFYLnRnJ-99" value="&lt;b&gt;&lt;font style=&quot;font-size: 20px;&quot;&gt;Text&lt;/font&gt;&lt;/b&gt;" style="text;html=1;align=left;verticalAlign=middle;whiteSpace=wrap;rounded=0;movable=0;resizable=0;rotatable=0;deletable=0;editable=0;locked=1;connectable=0;" vertex="1" parent="BX17k702RvWDPFYLnRnJ-100">
                    <mxGeometry width="60" height="25.71428571428571" as="geometry"/>
                </mxCell>
                <mxCell id="BX17k702RvWDPFYLnRnJ-101" value="" style="rounded=1;whiteSpace=wrap;html=1;strokeColor=none;fillColor=#E6E6E6;movable=0;resizable=0;rotatable=0;deletable=0;editable=0;locked=1;connectable=0;" vertex="1" parent="BX17k702RvWDPFYLnRnJ-1">
                    <mxGeometry x="70" y="2710" width="70" height="60" as="geometry"/>
                </mxCell>
                <mxCell id="BX17k702RvWDPFYLnRnJ-102" value="" style="group;movable=0;resizable=0;rotatable=0;deletable=0;editable=0;locked=1;connectable=0;" vertex="1" connectable="0" parent="BX17k702RvWDPFYLnRnJ-1">
                    <mxGeometry x="160" y="2710" width="210" height="60" as="geometry"/>
                </mxCell>
                <mxCell id="BX17k702RvWDPFYLnRnJ-103" value="&lt;h1 style=&quot;margin-top: 0px;&quot;&gt;&lt;span style=&quot;font-size: 21px; background-color: transparent; font-weight: normal;&quot;&gt;Lorem ipsum dolor si&lt;/span&gt;&lt;/h1&gt;" style="text;html=1;whiteSpace=wrap;overflow=hidden;rounded=0;align=left;movable=0;resizable=0;rotatable=0;deletable=0;editable=0;locked=1;connectable=0;" vertex="1" parent="BX17k702RvWDPFYLnRnJ-102">
                    <mxGeometry y="17.142857142857142" width="210" height="42.857142857142854" as="geometry"/>
                </mxCell>
                <mxCell id="BX17k702RvWDPFYLnRnJ-104" value="&lt;b&gt;&lt;font style=&quot;font-size: 20px;&quot;&gt;Text&lt;/font&gt;&lt;/b&gt;" style="text;html=1;align=left;verticalAlign=middle;whiteSpace=wrap;rounded=0;movable=0;resizable=0;rotatable=0;deletable=0;editable=0;locked=1;connectable=0;" vertex="1" parent="BX17k702RvWDPFYLnRnJ-102">
                    <mxGeometry width="60" height="25.71428571428571" as="geometry"/>
                </mxCell>
                <mxCell id="BX17k702RvWDPFYLnRnJ-105" value="&lt;b&gt;&lt;font style=&quot;font-size: 20px;&quot;&gt;Text&lt;/font&gt;&lt;/b&gt;" style="text;html=1;align=left;verticalAlign=middle;whiteSpace=wrap;rounded=0;movable=0;resizable=0;rotatable=0;deletable=0;editable=0;locked=1;connectable=0;" vertex="1" parent="BX17k702RvWDPFYLnRnJ-1">
                    <mxGeometry x="70" y="2790" width="60" height="25.71428571428571" as="geometry"/>
                </mxCell>
                <mxCell id="BX17k702RvWDPFYLnRnJ-106" value="" style="rounded=1;whiteSpace=wrap;html=1;strokeColor=none;fillColor=#E6E6E6;movable=0;resizable=0;rotatable=0;deletable=0;editable=0;locked=1;connectable=0;" vertex="1" parent="BX17k702RvWDPFYLnRnJ-1">
                    <mxGeometry x="70" y="2830" width="50" height="50" as="geometry"/>
                </mxCell>
                <mxCell id="BX17k702RvWDPFYLnRnJ-107" value="" style="rounded=1;whiteSpace=wrap;html=1;strokeColor=none;fillColor=#808080;movable=0;resizable=0;rotatable=0;deletable=0;editable=0;locked=1;connectable=0;" vertex="1" parent="BX17k702RvWDPFYLnRnJ-1">
                    <mxGeometry x="140" y="2830" width="50" height="50" as="geometry"/>
                </mxCell>
                <mxCell id="BX17k702RvWDPFYLnRnJ-108" value="" style="rounded=1;whiteSpace=wrap;html=1;strokeColor=none;fillColor=#333333;movable=0;resizable=0;rotatable=0;deletable=0;editable=0;locked=1;connectable=0;" vertex="1" parent="BX17k702RvWDPFYLnRnJ-1">
                    <mxGeometry x="210" y="2830" width="50" height="50" as="geometry"/>
                </mxCell>
                <mxCell id="BX17k702RvWDPFYLnRnJ-109" value="" style="rounded=0;whiteSpace=wrap;html=1;strokeColor=none;fillColor=#999999;movable=0;resizable=0;rotatable=0;deletable=0;editable=0;locked=1;connectable=0;" vertex="1" parent="BX17k702RvWDPFYLnRnJ-1">
                    <mxGeometry y="3060" width="1120" height="80" as="geometry"/>
                </mxCell>
                <mxCell id="BX17k702RvWDPFYLnRnJ-110" value="&lt;font style=&quot;font-size: 20px; color: rgb(255, 255, 51);&quot;&gt;&lt;b&gt;Text lkjsaf lkjalfkjlakjdf&lt;/b&gt;&lt;/font&gt;" style="text;html=1;align=center;verticalAlign=middle;whiteSpace=wrap;rounded=0;movable=0;resizable=0;rotatable=0;deletable=0;editable=0;locked=1;connectable=0;" vertex="1" parent="BX17k702RvWDPFYLnRnJ-1">
                    <mxGeometry x="265" y="3085" width="600" height="30" as="geometry"/>
                </mxCell>
            </root>
        </mxGraphModel>
    </diagram>
</mxfile>